<svg width="50" height="34" viewBox="0 0 50 34" fill="none" xmlns="http://www.w3.org/2000/svg">
<path opacity="0.9" d="M14.4513 19.9731L4.17571 20.8818C1.86967 20.8818 0 18.9939 0 16.6654C0 14.3369 1.86967 12.4491 4.17571 12.4491L14.4513 13.3578C16.2604 13.3578 17.7271 14.8388 17.7271 16.6654C17.7271 18.4952 16.2604 19.9731 14.4513 19.9731Z" fill="white"/>
<path d="M48.9576 19.8061C48.797 19.9682 48.197 20.6536 47.6333 21.2227C44.3455 24.7874 35.7607 30.6163 31.2699 32.4001C30.5881 32.6847 28.8639 33.2905 27.9396 33.3334C27.0578 33.3334 26.2154 33.1284 25.4124 32.7245C24.4094 32.1584 23.6094 31.265 23.167 30.2124C22.8851 29.4842 22.4427 27.2964 22.4427 27.2566C22.0033 24.8669 21.7639 20.981 21.7639 16.6851C21.7639 12.5972 22.0033 8.87037 22.3639 6.4409C22.4033 6.39806 22.8458 3.68403 23.3276 2.75385C24.2094 1.05261 25.9336 4.19617e-05 27.779 4.19617e-05H27.9396C29.1426 0.0398178 31.6699 1.09545 31.6699 1.13216C35.9213 2.91602 44.3031 8.46342 47.6727 12.1505C47.6727 12.1505 48.6242 13.099 49.0363 13.6895C49.6788 14.5402 50 15.5927 50 16.6453C50 17.8202 49.6394 18.9126 48.9576 19.8061Z" fill="white"/>
</svg>
