<svg width="50" height="34" viewBox="0 0 50 34" fill="none" xmlns="http://www.w3.org/2000/svg">
<path opacity="0.9" d="M35.5487 13.3603L45.8243 12.4515C48.1303 12.4515 50 14.3394 50 16.6679C50 18.9964 48.1303 20.8843 45.8243 20.8843L35.5487 19.9756C33.7396 19.9756 32.2729 18.4946 32.2729 16.6679C32.2729 14.8382 33.7396 13.3603 35.5487 13.3603Z" fill="white"/>
<path d="M1.04244 13.5273C1.20305 13.3652 1.80304 12.6798 2.36667 12.1106C5.65451 8.54599 14.2393 2.71709 18.7301 0.933235C19.4119 0.648675 21.1361 0.042837 22.0604 0C22.9422 0 23.7846 0.205006 24.5876 0.608898C25.5906 1.17496 26.3906 2.06842 26.833 3.12098C27.1149 3.84921 27.5573 6.03696 27.5573 6.07674C27.9967 8.46643 28.2361 12.3524 28.2361 16.6483C28.2361 20.7362 27.9967 24.463 27.6361 26.8925C27.5967 26.9353 27.1542 29.6493 26.6724 30.5795C25.7906 32.2808 24.0664 33.3333 22.221 33.3333H22.0604C20.8574 33.2936 18.3301 32.2379 18.3301 32.2012C14.0787 30.4174 5.69693 24.87 2.32728 21.1829C2.32728 21.1829 1.37577 20.2344 0.963657 19.6438C0.321241 18.7932 3.43323e-05 17.7407 3.43323e-05 16.6881C3.43323e-05 15.5131 0.360634 14.4208 1.04244 13.5273Z" fill="white"/>
</svg>
