<svg width="482" height="482" viewBox="0 0 482 482" fill="none" xmlns="http://www.w3.org/2000/svg">
<g opacity="0.1">
<path d="M192.142 258.986L208.014 318.22" stroke="#52E8A4" stroke-width="24.5625" stroke-linecap="round" stroke-linejoin="round"/>
<path d="M230.301 280.51L169.862 296.705" stroke="#52E8A4" stroke-width="24.5625" stroke-linecap="round" stroke-linejoin="round"/>
<path d="M295.718 233.168L294.025 233.621" stroke="#52E8A4" stroke-width="24.5625" stroke-linecap="round" stroke-linejoin="round"/>
<path d="M339.553 282.018L337.86 282.472" stroke="#52E8A4" stroke-width="24.5625" stroke-linecap="round" stroke-linejoin="round"/>
<path d="M136.154 99.1392C139.292 110.851 151.524 117.75 163.474 114.548L180.185 110.071C198.639 105.196 217.495 115.831 222.42 133.878L225.281 144.555" stroke="#52E8A4" stroke-width="24.5625" stroke-linecap="round" stroke-linejoin="round"/>
<path fill-rule="evenodd" clip-rule="evenodd" d="M352.929 379.474C305.611 393.015 258.94 405.486 212.86 417.005C161.941 430.649 114.984 404.304 101.612 354.4L81.9062 280.857C68.5343 230.953 96.028 184.659 146.947 171.015C192.861 157.868 239.561 145.372 287.016 133.484C337.935 119.84 384.879 146.206 398.247 196.094L417.952 269.636C431.324 319.541 403.847 365.83 352.929 379.474Z" stroke="#52E8A4" stroke-width="24.5625" stroke-linecap="round" stroke-linejoin="round"/>
</g>
</svg>
