<svg width="482" height="482" viewBox="0 0 482 482" fill="none" xmlns="http://www.w3.org/2000/svg">
<g opacity="0.1" clip-path="url(#clip0_71_30)">
<path d="M189.481 232.271L173.609 291.505" stroke="#00D1EF" stroke-width="24.5625" stroke-linecap="round" stroke-linejoin="round"/>
<path d="M211.765 269.991L151.326 253.796" stroke="#00D1EF" stroke-width="24.5625" stroke-linecap="round" stroke-linejoin="round"/>
<path d="M292.089 261.7L290.396 261.246" stroke="#00D1EF" stroke-width="24.5625" stroke-linecap="round" stroke-linejoin="round"/>
<path d="M305.626 325.923L303.933 325.469" stroke="#00D1EF" stroke-width="24.5625" stroke-linecap="round" stroke-linejoin="round"/>
<path d="M220.917 65.8455C217.779 77.5577 224.923 89.6481 236.873 92.8502L253.583 97.3278C272.002 102.334 283.014 120.971 278.257 139.063L275.396 149.74" stroke="#00D1EF" stroke-width="24.5625" stroke-linecap="round" stroke-linejoin="round"/>
<path fill-rule="evenodd" clip-rule="evenodd" d="M268.482 417.01C220.733 405.078 174.08 392.542 128.413 379.479C77.4944 365.835 50.0008 319.541 63.3726 269.637L83.0782 196.094C96.45 146.19 143.407 119.845 194.326 133.489C240.663 145.059 287.354 157.588 334.395 171.02C385.314 184.664 412.786 230.969 399.419 280.857L379.713 354.4C366.341 404.304 319.401 430.654 268.482 417.01Z" stroke="#00D1EF" stroke-width="24.5625" stroke-linecap="round" stroke-linejoin="round"/>
</g>
<defs>
<clipPath id="clip0_71_30">
<rect width="393" height="393" fill="white" transform="translate(101.716) rotate(15)"/>
</clipPath>
</defs>
</svg>
